<svg xmlns="http://www.w3.org/2000/svg" viewBox="0 0 37 37" fill="none"><path d="M37 18.5C37 28.7173 28.7173 37 18.5 37C8.28273 37 0 28.7173 0 18.5C0 8.28273 8.28273 0 18.5 0C28.7173 0 37 8.28273 37 18.5ZM1.84748 18.5C1.84748 27.6969 9.30307 35.1525 18.5 35.1525C27.6969 35.1525 35.1525 27.6969 35.1525 18.5C35.1525 9.30307 27.6969 1.84748 18.5 1.84748C9.30307 1.84748 1.84748 9.30307 1.84748 18.5Z" fill="currentColor"/><path d="M25.47 11.6682C26.3535 11.6682 26.5861 12.3777 26.3247 14.0437C26.0257 15.9488 25.1641 22.2562 24.477 26.1826C24.214 27.6851 23.7401 28.3329 23.0503 28.3329C22.6711 28.3329 22.227 28.1372 21.7168 27.7796C21.0255 27.2947 17.5353 24.8442 16.7774 24.2686C16.0861 23.7443 15.1323 23.1131 16.3286 21.8709C16.7544 21.4283 19.5443 18.5995 21.7179 16.3981C21.9499 16.1629 21.7556 15.8042 21.4979 15.8042C21.4392 15.8042 21.3769 15.8231 21.3162 15.8659C18.3863 17.9289 14.3237 20.7921 13.8067 21.1652C13.2898 21.5378 12.7859 21.7769 12.1145 21.7769C11.7715 21.7769 11.3844 21.7146 10.9293 21.5756C9.91164 21.2653 8.91809 20.8955 8.53105 20.7543C7.041 20.2116 7.39452 19.5082 8.84163 18.832C14.6437 16.1223 22.1515 12.8181 23.188 12.3611C24.1978 11.9156 24.9478 11.6682 25.47 11.6682ZM25.47 10C24.7535 10 23.8909 10.2452 22.5862 10.8196L22.4296 10.8886C16.8596 13.3442 11.8092 15.6229 8.20894 17.3045C7.64644 17.5675 5.93537 18.3666 6.00189 20.0381C6.03017 20.7593 6.40412 21.7424 8.02144 22.3313L8.14086 22.3747C8.59233 22.5398 9.53245 22.884 10.4961 23.1782C11.0827 23.3572 11.6128 23.444 12.115 23.444C12.9865 23.444 13.6616 23.1799 14.1896 22.8724C14.187 22.9658 14.1891 23.0597 14.1959 23.1543C14.2912 24.4399 15.2276 25.145 15.787 25.5665L15.865 25.6254C16.691 26.2527 20.4289 28.8745 20.8521 29.1709C21.6487 29.7292 22.3678 30 23.0513 30C24.1261 30 25.5145 29.3906 26.0225 26.4868C26.5049 23.7326 27.0622 19.8852 27.4691 17.0759C27.6425 15.8771 27.7849 14.8939 27.8755 14.3173C28.0583 13.1529 28.1421 11.8339 27.379 10.878C27.0585 10.4777 26.4677 10 25.47 10Z" fill="currentColor"/></svg>
