<svg xmlns="http://www.w3.org/2000/svg" fill="none" viewBox="0 0 39 39"><path stroke="#fff" stroke-linejoin="round" stroke-width="2" d="M32.585 6.396C29.105 2.927 24.463 1 19.565 1 9.38 1 1.128 9.222 1.128 19.372c0 3.211.902 6.423 2.45 9.121L1 38l9.798-2.57c2.707 1.414 5.672 2.185 8.766 2.185C29.75 37.615 38 29.392 38 19.243c-.129-4.753-1.934-9.378-5.415-12.847ZM28.46 25.924c-.387 1.027-2.192 2.055-3.094 2.184a7.23 7.23 0 0 1-2.836-.129c-.645-.257-1.547-.514-2.579-1.028-4.64-1.927-7.606-6.552-7.864-6.937-.258-.257-1.934-2.441-1.934-4.754 0-2.312 1.16-3.34 1.547-3.854.387-.514.903-.514 1.29-.514h.902c.258 0 .645-.128 1.031.771.387.9 1.29 3.212 1.418 3.34a.817.817 0 0 1 0 .771c-.129.257-.257.514-.515.771s-.516.642-.645.771c-.258.257-.515.514-.258.9.258.513 1.16 1.926 2.579 3.211 1.805 1.542 3.223 2.056 3.738 2.313.516.257.774.128 1.032-.129s1.16-1.285 1.418-1.799c.258-.513.644-.385 1.031-.256.387.128 2.708 1.284 3.094 1.541.516.257.774.386.903.514.129.386.129 1.285-.258 2.313Z"/></svg>