<svg xmlns="http://www.w3.org/2000/svg" fill="none" viewBox="0 0 37 37"><path fill="#fff" d="m12.887 28.81.481-.877-.48.876Zm-.71-.765.904-.428-.904.427Zm12.646 0-.904-.428.904.427Zm-.71.764-.481-.876.48.876Zm0-20.618-.481.876.48-.876Zm.71.765-.904.427.904-.427ZM12.887 8.19l.481.876-.48-.876Zm-.71.765.904.427-.904-.427Zm6.145 16.063a1 1 0 1 0 0 2v-2Zm.008 2a1 1 0 1 0 0-2v2Zm-2.445-16.314-.983.183.151.817h.832v-1Zm5.687 0v1h.832l.151-.817-.983-.183ZM14.6 9h7.8V7h-7.8v2Zm9.4 1.8v15.4h2V10.8h-2ZM22.4 28h-7.8v2h7.8v-2ZM13 26.2V10.8h-2v15.4h2Zm1.6 1.8c-.473 0-.763 0-.98-.02-.203-.018-.249-.046-.252-.047l-.962 1.753c.345.189.7.256 1.04.286.324.029.717.028 1.154.028v-2ZM11 26.2c0 .475 0 .887.025 1.225.026.348.085.702.248 1.047l1.808-.855c-.014-.03-.044-.108-.062-.343-.018-.245-.019-.569-.019-1.074h-2Zm2.368 1.733a.695.695 0 0 1-.287-.316l-1.808.855c.242.51.634.94 1.133 1.214l.962-1.753ZM24 26.2c0 .505 0 .829-.02 1.074-.017.235-.047.313-.061.343l1.808.855c.163-.345.222-.699.248-1.047.026-.338.025-.75.025-1.225h-2ZM22.4 30c.437 0 .83 0 1.155-.028.339-.03.694-.097 1.039-.286l-.962-1.753c-.003.001-.05.03-.252.047-.217.02-.507.02-.98.02v2Zm1.519-2.383a.695.695 0 0 1-.287.316l.962 1.753c.499-.274.891-.703 1.133-1.214l-1.808-.855ZM22.4 9c.473 0 .763 0 .98.02.203.018.249.046.252.047l.962-1.753c-.345-.189-.7-.256-1.04-.286C23.23 6.999 22.838 7 22.4 7v2Zm3.6 1.8c0-.475 0-.887-.025-1.225-.026-.348-.085-.702-.248-1.047l-1.808.855c.014.03.044.108.062.343.018.245.019.569.019 1.074h2Zm-2.368-1.733a.694.694 0 0 1 .287.316l1.808-.855a2.692 2.692 0 0 0-1.133-1.214l-.962 1.753ZM14.6 7c-.437 0-.83 0-1.155.028-.339.03-.694.097-1.039.286l.962 1.753c.003-.001.05-.03.252-.047.217-.02.507-.02.98-.02V7ZM13 10.8c0-.505 0-.829.02-1.074.017-.235.047-.313.061-.343l-1.808-.855c-.163.345-.222.699-.248 1.047-.026.338-.025.75-.025 1.225h2Zm-.594-3.486c-.499.274-.891.703-1.133 1.214l1.808.855a.694.694 0 0 1 .287-.316l-.962-1.753Zm5.916 19.705h.008v-2h-.008v2Zm-.593-1c0-.24.197-.563.593-.563v2c.845 0 1.407-.714 1.407-1.437h-2Zm.593-.563c.397 0 .594.323.594.563h-2c0 .723.561 1.438 1.406 1.438v-2Zm.594.563c0 .24-.197.563-.594.563v-2c-.845 0-1.406.714-1.406 1.437h2Zm-.594.563a.579.579 0 0 1-.593-.563h2c0-.723-.562-1.438-1.407-1.438v2ZM14.495 8.7l.407 2.188 1.966-.365-.406-2.188-1.967.365Zm1.39 3.005h5.687v-2h-5.687v2Zm6.67-.817.407-2.188-1.967-.365-.406 2.188 1.966.365Z"/><circle cx="18.5" cy="18.5" r="17.5" stroke="#fff" stroke-width="2"/></svg>
