<svg xmlns="http://www.w3.org/2000/svg" fill="none" viewBox="0 0 37 37"><path stroke="#fff" stroke-linecap="round" stroke-linejoin="round" stroke-width="2" d="M9.053 18.341c-.609-.236-.914-.355-.999-.522a.494.494 0 0 1 .006-.46c.09-.166.397-.276 1.012-.497l15.687-5.631c.503-.18.755-.271.92-.214.142.05.255.162.304.305.057.164-.033.416-.214.92l-5.631 15.686c-.22.615-.331.922-.496 1.012a.493.493 0 0 1-.46.006c-.168-.086-.287-.39-.523-.999l-2.564-6.592a1.065 1.065 0 0 0-.105-.23.496.496 0 0 0-.116-.115c-.05-.035-.11-.059-.229-.105l-6.592-2.564Z"/><circle cx="18.5" cy="18.5" r="17.5" stroke="#fff" stroke-width="2"/></svg>
