<svg width="47" height="47" viewBox="0 0 47 47" fill="none" xmlns="http://www.w3.org/2000/svg">
<path fill-rule="evenodd" clip-rule="evenodd" d="M23.4457 46.8911C19.4013 46.8911 15.5954 45.8653 12.2731 44.06L11.9533 43.8768L0.718912 46.6656L3.59228 35.9072L3.39602 35.6004C1.24045 32.0547 0 27.8943 0 23.4454C0 10.5044 10.5046 -0.000202179 23.4457 -0.000202179C36.3867 -0.000202179 46.8913 10.5044 46.8913 23.4454C46.8913 36.3864 36.3867 46.8911 23.4457 46.8911ZM30.6584 38.272C32.0051 38.272 33.098 37.1791 33.098 35.8324V12.7999C33.098 11.4532 32.0051 10.3602 30.6584 10.3602H29.6543V11.8978C29.6543 12.6416 29.0503 13.2444 28.3087 13.2444H19.5921C18.8482 13.2444 18.2454 12.6416 18.2454 11.8978V10.3602H17.2413C15.8946 10.3602 14.8017 11.4532 14.8017 12.7999V35.8324C14.8017 37.1791 15.8946 38.272 17.2413 38.272H30.6584ZM23.7905 35.8465C22.7636 35.8465 21.9287 35.0116 21.9287 33.9848C21.9287 32.959 22.7636 32.1241 23.7905 32.1241C24.8162 32.1241 25.6511 32.959 25.6511 33.9848C25.6511 35.0116 24.8162 35.8465 23.7905 35.8465ZM28.2198 11.8088V10.3602H19.681V11.8088H28.2198Z" fill="url(#paint0_linear_94_335)"/>
<defs>
<linearGradient id="paint0_linear_94_335" x1="20.7371" y1="40.6609" x2="39.4412" y2="20.3305" gradientUnits="userSpaceOnUse">
<stop stop-color="#FFFDF8"/>
<stop offset="0.5" stop-color="#FFE79E"/>
<stop offset="1" stop-color="white"/>
</linearGradient>
</defs>
</svg>
