<svg width="47" height="47" viewBox="0 0 47 47" fill="none" xmlns="http://www.w3.org/2000/svg">
<path fill-rule="evenodd" clip-rule="evenodd" d="M23.4456 46.8911C19.4012 46.8911 15.5954 45.8654 12.2731 44.0601L11.9532 43.8768L0.718879 46.6656L3.59226 35.9072L3.39601 35.6004C1.24043 32.0548 0 27.8943 0 23.4455C0 10.5045 10.5046 -0.000141144 23.4456 -0.000141144C36.3867 -0.000141144 46.8913 10.5045 46.8913 23.4455C46.8913 36.3865 36.3867 46.8911 23.4456 46.8911ZM30.8828 34.5573C33.1837 34.4001 35.0562 33.3342 36.5851 31.5354C37.3831 30.2711 37.0893 28.4202 35.6905 27.942L30.4198 26.3807L26.9902 29.6563C25.2054 29.1825 23.4055 28.1849 21.5948 26.6214C19.6712 25.1988 18.3072 23.6841 17.4528 22.0468L19.8924 17.9807L17.2088 13.1826C16.4357 11.9227 14.5653 12.0442 13.5081 13.1014C11.2387 16.1189 10.9947 19.5854 13.5493 23.6732C14.9144 26.0749 16.7144 28.1535 18.935 29.9133C21.1404 31.6916 23.6191 33.0187 26.2626 33.8211C27.9682 34.4186 29.5025 34.6516 30.8828 34.5573Z" fill="url(#paint0_linear_94_333)"/>
<defs>
<linearGradient id="paint0_linear_94_333" x1="20.7371" y1="40.6609" x2="39.4411" y2="20.3305" gradientUnits="userSpaceOnUse">
<stop stop-color="#FFFDF8"/>
<stop offset="0.5" stop-color="#FFE79E"/>
<stop offset="1" stop-color="white"/>
</linearGradient>
</defs>
</svg>
