<svg version="1.1" xmlns="http://www.w3.org/2000/svg">
	<symbol viewBox="0 0 178 36" id="i-logo">
		<path fill="#c50626" d="M18.1,36c10,0,18.1-8.1,18.1-18c0-9.9-8.1-18-18.1-18C8.1,0,0,8.1,0,18C0,27.9,8.1,36,18.1,36z"/>
		<path fill="currentColor" d="M82.9,20.2c0-1.1-1.4-1.3-3-1.4c-3.6-0.3-5.9-1.5-5.9-5C73.8,7,86,6.8,86.4,13.4c0,0.2-0.2,0.4-0.4,0.4h-3.2c-0.2,0-0.3-0.1-0.4-0.3c-0.4-1.8-4.4-1.6-4.5,0.2c-0.1,1.2,1.1,1.5,2.6,1.6c3.2,0.3,6.4,0.8,6.4,4.8c0,6.7-12.8,7-13.2,0.3c0-0.2,0.2-0.4,0.4-0.4h3.3c0.2,0,0.3,0.1,0.4,0.3C78.2,22.2,82.9,22.1,82.9,20.2L82.9,20.2z M70.7,12.6h-5.3c-0.2,0-0.4,0.2-0.4,0.4v1.5c0,0.2,0.2,0.4,0.4,0.4h4.8c0.2,0,0.4,0.2,0.4,0.4v2.9c0,0.2-0.2,0.4-0.4,0.4h-4.8c-0.2,0-0.4,0.2-0.4,0.4V21c0,0.2,0.2,0.4,0.4,0.4h5.5c0.2,0,0.4,0.2,0.4,0.4v2.9c0,0.2-0.2,0.4-0.4,0.4h-9.6c-0.2,0-0.4-0.2-0.4-0.4V9.3c0-0.2,0.2-0.4,0.4-0.4h9.4c0.2,0,0.4,0.2,0.4,0.4v2.9C71.1,12.4,70.9,12.6,70.7,12.6L70.7,12.6zM58,25.1h-4.1c-0.1,0-0.3-0.1-0.3-0.2l-2.6-4.4c-0.1-0.1-0.2-0.2-0.3-0.2h-1.6c-0.2,0-0.4,0.2-0.4,0.4v4c0,0.2-0.2,0.4-0.4,0.4h-3.4c-0.2,0-0.4-0.2-0.4-0.4V9.3c0-0.2,0.2-0.4,0.4-0.4h6.8c6.4,0,7.6,7.7,3.5,10.5l3.2,5.2C58.5,24.8,58.3,25.1,58,25.1L58,25.1zM51.7,12.6c-0.9,0-1.7,0-2.6,0c-0.2,0-0.4,0.2-0.4,0.4v3.2c0,0.2,0.2,0.4,0.4,0.4h2.6C53.9,16.6,54,12.6,51.7,12.6L51.7,12.6zM88.4,12.2V9.3c0-0.2,0.2-0.4,0.4-0.4h11.4c0.2,0,0.4,0.2,0.4,0.4v2.9c0,0.2-0.2,0.4-0.4,0.4h-3.6v12.1c0,0.2-0.2,0.4-0.4,0.4h-3.3c-0.2,0-0.4-0.2-0.4-0.4V12.6h-3.6C88.6,12.6,88.4,12.4,88.4,12.2z M102.2,17c0-11.2,16.8-11.2,16.8,0C118.9,28.2,102.2,28.2,102.2,17z M114.7,17c0-5.8-8.2-5.8-8.2,0C106.5,22.8,114.7,22.9,114.7,17z M126.4,20.2v4.5c0,0.2-0.2,0.4-0.4,0.4h-3.5c-0.2,0-0.4-0.2-0.4-0.4V9.3c0-0.2,0.2-0.4,0.4-0.4h9.4c0.2,0,0.4,0.2,0.4,0.4v2.9c0,0.2-0.2,0.4-0.4,0.4h-5.1c-0.2,0-0.4,0.2-0.4,0.4v2.8c0,0.2,0.2,0.4,0.4,0.4h4.5c0.2,0,0.4,0.2,0.4,0.4v2.9c0,0.2-0.2,0.4-0.4,0.4h-4.5C126.5,19.9,126.4,20,126.4,20.2L126.4,20.2z M140.1,21.4h5.1c0.2,0,0.4,0.2,0.4,0.4v3c0,0.2-0.2,0.4-0.4,0.4h-9.4c-0.2,0-0.4-0.2-0.4-0.4V9.3c0-0.2,0.2-0.4,0.4-0.4h3.4c0.2,0,0.4,0.2,0.4,0.4V21C139.7,21.2,139.9,21.4,140.1,21.4L140.1,21.4z M147.5,17c0-11.2,16.8-11.2,16.8,0C164.3,28.2,147.5,28.2,147.5,17z M160,17c0-5.8-8.2-5.8-8.2,0C151.8,22.8,160,22.9,160,17z M165.8,12.2V9.3c0-0.2,0.2-0.4,0.4-0.4h11.4c0.2,0,0.4,0.2,0.4,0.4v2.9c0,0.2-0.2,0.4-0.4,0.4H174v12.1c0,0.2-0.2,0.4-0.4,0.4h-3.3c-0.2,0-0.4-0.2-0.4-0.4V12.6h-3.6C166,12.6,165.8,12.4,165.8,12.2z"/>
		<path fill="#fcfcfc" d="M15.8,11c0,0.8,0.3,1.3,1,1.7c0.1,0,0.1,0,0.1,0.2c0.1,0.9-0.3,1.8-1,2.2c-0.3,0.1-0.6,0.2-0.9-0.1c0-0.1,0.1-0.2,0.2-0.3c0.2-0.3,0.3-0.6,0.3-1c0-0.4,0-0.7-0.2-1c-0.2-0.6-0.6-0.9-1.2-1.1c-0.4-0.1-0.6-0.2-1.1-0.2c-0.6,0-1,0.1-1,0.7c0,1.7,0,3.7,0,5.4c-0.5,0-2.4,0-3,0c-1.3,0-1.1-0.1-1.1,2.5c0,0.3,0.1,0.4,0.2,0.5c4.7-0.7,7,0.3,11.5,1.5c3,0.8,6.9,1.7,9.6-0.1c1-0.7,2.4-2.5,3.3-3.4c0.2-0.2,0.9-0.8,0.2-1c-0.3-0.1-6.9,0-7.9,0c0-1.7,0-3.7,0-5.5c0-0.7-0.5-0.7-1.1-0.7c-1.5,0-2.5,0.9-2.4,2.4c0,0.7,0.3,0.9,0.4,1.2c0,0,0,0-0.1,0.1c-0.7,0.4-2-0.5-1.8-2.4c0.6-0.2,1.1-0.9,1.1-1.6c0-1.5-1.2-2.2-2.7-2.2C16.9,8.9,15.8,9.8,15.8,11 M3.7,23.7c0,0.1,0.2,0.2,0.3,0.1c0.3-0.2,1.7-0.8,2.1-0.9c0.4-0.1,0.8-0.2,1.2-0.3c1.3-0.2,2-0.1,3.2,0l0.9,0.1c0.3,0,0.6,0.1,0.8,0.2c2.4,0.6,4.8,1.2,7.2,1.7c1.6,0.2,3.3,0.4,4.9,0.1c0.5-0.1,2.9-0.6,2.9-1.1c0-0.2-0.4,0-0.7,0c-0.2,0-0.5,0.1-0.7,0.1c-1.8,0.2-3.5,0.1-5.3-0.4c-1.2-0.3-1.9-0.5-3.1-0.9c-0.7-0.2-2.4-0.8-3.1-0.9l-0.8-0.2c-3-0.6-5.9-0.2-8.6,1.3c-0.2,0.1-0.5,0.3-0.8,0.5C4.1,23.2,3.7,23.4,3.7,23.7 M17.2,25.1C17.1,25,17,25,16.8,24.9c-4.1-1.1-7.9-2.4-12.1-0.6c-0.2,0.1-0.5,0.2-0.7,0.3c-0.1,0.1-0.6,0.3-0.7,0.4l13.6,0L17.2,25.1L17.2,25.1z"/>
	</symbol>
</svg>
