<svg version="1.1" xmlns="http://www.w3.org/2000/svg">
	<symbol viewBox="0 0 32 32" fill="none" id="icon-arrow-circle">
		<path d="M32 16C32 24.8366 24.8366 32 16 32C7.16344 32 0 24.8366 0 16C0 7.16344 7.16344 0 16 0C24.8366 0 32 7.16344 32 16ZM1.02205 16C1.02205 24.2721 7.72791 30.9779 16 30.9779C24.2721 30.9779 30.9779 24.2721 30.9779 16C30.9779 7.72791 24.2721 1.02205 16 1.02205C7.72791 1.02205 1.02205 7.72791 1.02205 16Z" fill="currentColor"/>
		<path fill-rule="evenodd" clip-rule="evenodd" d="M16 25C20.9706 25 25 20.9706 25 16C25 11.0294 20.9706 7 16 7C11.0294 7 7 11.0294 7 16C7 20.9706 11.0294 25 16 25ZM12.8536 14.1464C12.6583 13.9512 12.3417 13.9512 12.1464 14.1464C11.9512 14.3417 11.9512 14.6583 12.1464 14.8536L15.6464 18.3536L16 18.7071L16.3536 18.3536L19.8536 14.8536C20.0488 14.6583 20.0488 14.3417 19.8536 14.1464C19.6583 13.9512 19.3417 13.9512 19.1464 14.1464L16 17.2929L12.8536 14.1464Z" fill="currentColor"/>
	</symbol>
	<symbol viewBox="0 0 32 32" fill="none" id="icon-arrow-circle--yellow">
		<circle cx="8.51064" cy="8.51064" r="8.51064" transform="matrix(1 0 0 -1 7.49023 24.5107)" fill="#ffb342"/>
		<circle cx="16" cy="16" r="15.5" transform="matrix(1 0 0 -1 0 32)" stroke="#ffb342"/>
		<path d="M12.6895 14.8965L15.9998 18.2068L19.3101 14.8965" stroke="white" stroke-width="1.10345" stroke-linecap="round"/>
	</symbol>
	<symbol viewBox="0 0 24 16" fill="none" id="icon-arrow-right">
		<path d="M23.7071 7.29289C24.0976 7.68342 24.0976 8.31658 23.7071 8.70711L17.3431 15.0711C16.9526 15.4616 16.3195 15.4616 15.9289 15.0711C15.5384 14.6805 15.5384 14.0474 15.9289 13.6569L21.5858 8L15.9289 2.34315C15.5384 1.95262 15.5384 1.31946 15.9289 0.928932C16.3195 0.538408 16.9526 0.538408 17.3431 0.928932L23.7071 7.29289ZM0 7H23V9H0V7Z" fill="currentColor"/>
	</symbol>
	<symbol viewBox="0 0 24 16" fill="none" id="icon-arrow-left">
		<path d="M0.292892 7.29289C-0.0976315 7.68342 -0.0976315 8.31658 0.292892 8.70711L6.65685 15.0711C7.04738 15.4616 7.68054 15.4616 8.07107 15.0711C8.46159 14.6805 8.46159 14.0474 8.07107 13.6569L2.41421 8L8.07107 2.34315C8.46159 1.95262 8.46159 1.31946 8.07107 0.928932C7.68054 0.538408 7.04738 0.538408 6.65685 0.928932L0.292892 7.29289ZM24 7H1V9H24V7Z" fill="currentColor"/>
	</symbol>
	<symbol viewBox="0 0 100 143" fill="none" id="icon-check">
		<path fill-rule="evenodd" clip-rule="evenodd" d="M50 0L57.0396 5.55403L65.4509 2.44717L70.4296 9.90471L79.3893 9.54915L81.8198 18.1802L90.4509 20.6107L90.0953 29.5704L97.5528 34.5491L94.446 42.9604L100 50L94.446 57.0396L97.5528 65.4509L90.0953 70.4296L90.4509 79.3893L81.8198 81.8198L79.3893 90.4509L77 90.356L76 90.3164V91.3171V141.047V141.768V143L75 142.28L74.4155 141.859L51 124.99L27.5845 141.859L27 142.28L26 143V141.768V141.047V91.2378V90.237L25 90.2767L20.6107 90.4509L18.1802 81.8198L9.54915 79.3893L9.90471 70.4296L2.44717 65.4509L5.55403 57.0396L0 50L5.55403 42.9604L2.44717 34.5491L9.90471 29.5704L9.54915 20.6107L18.1802 18.1802L20.6107 9.54915L29.5704 9.90471L34.5491 2.44717L42.9604 5.55403L50 0ZM57.386 6.49208L65.0572 3.6586L69.5979 10.46L69.9091 10.9261L70.4692 10.9039L78.6406 10.5796L80.8572 18.4513L81.0092 18.9908L81.5487 19.1428L89.4203 21.3594L89.0961 29.5308L89.0739 30.0909L89.54 30.4021L96.3414 34.9428L93.5079 42.614L93.3137 43.1398L93.6609 43.5799L98.7262 50L93.6609 56.4201L93.3137 56.8602L93.5079 57.386L96.3414 65.0572L89.54 69.5979L89.0739 69.9091L89.0961 70.4692L89.4203 78.6406L81.5487 80.8572L81.0092 81.0092L80.8572 81.5487L78.6406 89.4203L76.0396 89.3171L76 89.3156L75.0396 89.2775L75 89.2759L70.4692 89.0961L69.9091 89.0739L69.5979 89.54L65.0572 96.3414L57.386 93.5079L56.8602 93.3137L56.4201 93.6609L50 98.7262L43.5799 93.6609L43.1398 93.3137L42.614 93.5079L34.9428 96.3414L30.4021 89.54L30.0909 89.0739L29.5308 89.0961L27 89.1965L26.9603 89.1981L26 89.2362L25.9603 89.2378L21.3594 89.4203L19.1428 81.5487L18.9908 81.0092L18.4513 80.8572L10.5796 78.6406L10.9039 70.4692L10.9261 69.9091L10.46 69.5979L3.6586 65.0572L6.49208 57.386L6.6863 56.8602L6.3391 56.4201L1.27377 50L6.3391 43.5799L6.6863 43.1398L6.49208 42.614L3.6586 34.9428L10.46 30.4021L10.9261 30.0909L10.9039 29.5308L10.5796 21.3594L18.4513 19.1428L18.9908 18.9908L19.1428 18.4513L21.3594 10.5796L29.5308 10.9039L30.0909 10.9261L30.4021 10.46L34.9428 3.6586L42.614 6.49208L43.1398 6.6863L43.5799 6.3391L50 1.27377L56.4201 6.3391L56.8602 6.6863L57.386 6.49208ZM57.0396 94.446L65.4509 97.5528L70.4296 90.0953L75 90.2767V90.3164V139.815V141.047L74 140.327L51.5845 124.179L51 123.758L50.4155 124.179L28 140.327L27 141.047V139.815V90.237V90.1973L29.5704 90.0953L34.5491 97.5528L42.9604 94.446L50 100L57.0396 94.446ZM86.7309 60.2092L86.2479 60.0801L85.7648 59.951C86.5703 56.9377 87 53.7698 87 50.5C87 47.2302 86.5703 44.0623 85.7648 41.049L86.2479 40.9199L86.7309 40.7908C87.5587 43.8875 88 47.1422 88 50.5C88 53.8578 87.5587 57.1125 86.7309 60.2092ZM82.9814 31.747L82.5487 31.9974L82.1159 32.2478C78.9109 26.7085 74.2915 22.0891 68.7522 18.8841L69.0026 18.4513L69.253 18.0186C74.9437 21.3112 79.6888 26.0563 82.9814 31.747ZM60.2092 14.2691L60.0801 14.7521L59.951 15.2352C56.9377 14.4297 53.7698 14 50.5 14C47.2302 14 44.0623 14.4297 41.049 15.2352L40.9199 14.7521L40.7908 14.2691C43.8875 13.4413 47.1422 13 50.5 13C53.8578 13 57.1125 13.4413 60.2092 14.2691ZM31.747 18.0186L31.9974 18.4513L32.2478 18.8841C26.7085 22.0891 22.0891 26.7085 18.8841 32.2478L18.4513 31.9974L18.0186 31.747C21.3112 26.0563 26.0563 21.3112 31.747 18.0186ZM14.2691 40.7908C13.4413 43.8875 13 47.1422 13 50.5C13 53.8578 13.4413 57.1125 14.2691 60.2092L14.7521 60.0801L15.2352 59.951C14.4297 56.9377 14 53.7698 14 50.5C14 47.2302 14.4297 44.0623 15.2352 41.049L14.7521 40.9199L14.2691 40.7908ZM18.0186 69.253L18.4513 69.0026L18.8841 68.7522C22.0891 74.2915 26.7085 78.9109 32.2478 82.1159L31.9974 82.5487L31.747 82.9814C26.0563 79.6888 21.3112 74.9437 18.0186 69.253ZM40.7908 86.7309L40.9199 86.2479L41.049 85.7648C44.0623 86.5703 47.2302 87 50.5 87C53.7698 87 56.9377 86.5703 59.951 85.7648L60.0801 86.2479L60.2092 86.7309C57.1125 87.5587 53.8578 88 50.5 88C47.1422 88 43.8875 87.5587 40.7908 86.7309ZM69.253 82.9814L69.0026 82.5487L68.7522 82.1159C74.2915 78.9109 78.9109 74.2915 82.1159 68.7522L82.5487 69.0026L82.9814 69.253C79.6888 74.9437 74.9437 79.6888 69.253 82.9814ZM72.5607 34.9393C73.1464 35.5251 73.1464 36.4749 72.5607 37.0607L45.0607 64.5607L44 65.6213L42.9393 64.5607L28.9393 50.5607C28.3536 49.9749 28.3536 49.0251 28.9393 48.4393C29.5251 47.8536 30.4749 47.8536 31.0607 48.4393L44 61.3787L70.4393 34.9393C71.0251 34.3536 71.9749 34.3536 72.5607 34.9393Z" fill="white"/>
	</symbol>
	<symbol viewBox="0 0 21 21" fill="none" id="icon-cursor">
		<path d="M18.1665 8.43649C18.7834 8.19658 19.0919 8.07663 19.1785 7.90702C19.2535 7.76008 19.2512 7.58559 19.1724 7.44067C19.0813 7.27339 18.7698 7.16157 18.1469 6.93794L2.25718 1.23393C1.74748 1.05097 1.49264 0.959482 1.32603 1.01718C1.18118 1.06734 1.06734 1.18118 1.01718 1.32603C0.959482 1.49264 1.05097 1.74748 1.23393 2.25718L6.93789 18.1469C7.16153 18.7699 7.27335 19.0814 7.44062 19.1724C7.58554 19.2513 7.76004 19.2536 7.90698 19.1785C8.07658 19.0919 8.19654 18.7835 8.43645 18.1666L11.0333 11.489C11.0803 11.3681 11.1038 11.3077 11.1401 11.2568C11.1722 11.2117 11.2117 11.1723 11.2568 11.1401C11.3077 11.1038 11.3681 11.0803 11.4889 11.0333L18.1665 8.43649Z" stroke="#4B4B4B" stroke-width="2" stroke-linecap="round" stroke-linejoin="round"/>
	</symbol>
	<symbol viewBox="0 0 18 22" fill="none" id="icon-marker">
		<path d="M9 12C10.6569 12 12 10.6569 12 9C12 7.34315 10.6569 6 9 6C7.34315 6 6 7.34315 6 9C6 10.6569 7.34315 12 9 12Z" stroke="white" stroke-width="2" stroke-linecap="round" stroke-linejoin="round"/>
		<path d="M9 21C13 17 17 13.4183 17 9C17 4.58172 13.4183 1 9 1C4.58172 1 1 4.58172 1 9C1 13.4183 5 17 9 21Z" stroke="white" stroke-width="2" stroke-linecap="round" stroke-linejoin="round"/>
	</symbol>
	<symbol viewBox="0 0 20 24" fill="none" id="icon-medal">
		<path d="M6.48578 13.2048L1.78887 7.46418C1.49649 7.10682 1.3503 6.92814 1.24634 6.72918C1.15411 6.55265 1.0867 6.36475 1.04594 6.17058C1 5.95171 1 5.72289 1 5.26525V4.52C1 3.28788 1 2.67183 1.24524 2.20122C1.46095 1.78726 1.80516 1.45071 2.22852 1.23979C2.70982 1 3.33988 1 4.6 1H15.4C16.6601 1 17.2902 1 17.7715 1.23979C18.1948 1.45071 18.539 1.78726 18.7548 2.20122C19 2.67183 19 3.28788 19 4.52V5.26525C19 5.72289 19 5.95171 18.9541 6.17058C18.9133 6.36475 18.8459 6.55265 18.7537 6.72918C18.6497 6.92814 18.5035 7.10682 18.2111 7.46418L13.5142 13.2048M2.12506 2.09999L10.0001 12L17.875 2.09999M13.9775 13.6109C16.1742 15.7588 16.1742 19.2412 13.9775 21.3891C11.7808 23.537 8.21923 23.537 6.02252 21.3891C3.82583 19.2412 3.82583 15.7588 6.02252 13.6109C8.21921 11.463 11.7808 11.463 13.9775 13.6109Z" stroke="white" stroke-width="2" stroke-linecap="round" stroke-linejoin="round"/>
	</symbol>
	<symbol viewBox="0 0 24 24" fill="none" id="icon-metro">
		<path d="M24 12C24 18.6274 18.6274 24 12 24C5.37258 24 0 18.6274 0 12C0 5.37258 5.37258 0 12 0C18.6274 0 24 5.37258 24 12ZM1.8 12C1.8 17.6333 6.3667 22.2 12 22.2C17.6333 22.2 22.2 17.6333 22.2 12C22.2 6.3667 17.6333 1.8 12 1.8C6.3667 1.8 1.8 6.3667 1.8 12Z" fill="currentColor"/>
		<path d="M17.1744 14.7427L14.3712 7L12 11.5262L9.6384 7L6.8256 14.7427H6V15.9162H10.2432V14.7427H9.6096L10.224 12.8149L12 16L13.776 12.8149L14.3904 14.7427H13.7568V15.9162H18V14.7427H17.1744Z" fill="currentColor"/>
	</symbol>
	<symbol viewBox="0 0 24 24" fill="none" id="icon-parking">
		<path fill-rule="evenodd" clip-rule="evenodd" d="M12 24C18.6274 24 24 18.6274 24 12C24 5.37258 18.6274 0 12 0C5.37258 0 0 5.37258 0 12C0 18.6274 5.37258 24 12 24ZM12 22.2C6.36669 22.2 1.8 17.6333 1.8 12C1.8 6.36669 6.36669 1.8 12 1.8C17.6333 1.8 22.2 6.36669 22.2 12C22.2 17.6333 17.6333 22.2 12 22.2ZM8.87 8.05143V17H10.5603V13.9674H12.6483C12.7311 13.9674 12.8471 13.9633 12.9963 13.955C13.1454 13.9467 13.278 13.9343 13.394 13.9177C13.9243 13.8349 14.3593 13.6588 14.699 13.3895C15.0429 13.1202 15.2956 12.7826 15.4571 12.3766C15.6229 11.9664 15.7057 11.5107 15.7057 11.0094C15.7057 10.5081 15.6249 10.0545 15.4634 9.6485C15.3018 9.23836 15.0491 8.89864 14.7052 8.62936C14.3655 8.36007 13.9284 8.184 13.394 8.10114C13.278 8.08043 13.1454 8.068 12.9963 8.06386C12.8513 8.05557 12.7353 8.05143 12.6483 8.05143H8.87ZM12.5737 12.389H10.5603V9.62986H12.5737C12.6607 9.62986 12.756 9.634 12.8596 9.64229C12.9631 9.65057 13.0584 9.66714 13.1454 9.692C13.3733 9.75414 13.5494 9.85979 13.6736 10.0089C13.7979 10.1539 13.8829 10.3176 13.9284 10.4999C13.9781 10.678 14.003 10.8479 14.003 11.0094C14.003 11.171 13.9781 11.3429 13.9284 11.5252C13.8829 11.7034 13.7979 11.867 13.6736 12.0161C13.5494 12.1611 13.3733 12.2647 13.1454 12.3269C13.0584 12.3517 12.9631 12.3683 12.8596 12.3766C12.756 12.3849 12.6607 12.389 12.5737 12.389Z" fill="currentColor"/>
	</symbol>
	<symbol viewBox="0 0 37 37" fill="none" id="icon-phone">
		<path d="M12.8873 28.8093L13.3683 27.9326L12.8873 28.8093ZM12.1771 28.0445L13.081 27.6168L12.1771 28.0445ZM24.8229 28.0445L23.919 27.6168L24.8229 28.0445ZM24.1127 28.8093L23.6317 27.9326L24.1127 28.8093ZM24.1127 8.19074L23.6317 9.06743L24.1127 8.19074ZM24.8229 8.95552L23.919 9.38319L24.8229 8.95552ZM12.8873 8.19074L13.3683 9.06743L12.8873 8.19074ZM12.1771 8.95552L13.081 9.38319L12.1771 8.95552ZM18.3223 25.019C17.77 25.019 17.3223 25.4667 17.3223 26.019C17.3223 26.5713 17.77 27.019 18.3223 27.019V25.019ZM18.3304 27.019C18.8827 27.019 19.3304 26.5713 19.3304 26.019C19.3304 25.4667 18.8827 25.019 18.3304 25.019V27.019ZM15.8848 10.7053L14.9016 10.8879L15.0534 11.7053H15.8848V10.7053ZM21.5723 10.7053V11.7053H22.4037L22.5555 10.8879L21.5723 10.7053ZM14.6 9H22.4V7H14.6V9ZM24 10.8V26.2H26V10.8H24ZM22.4 28H14.6V30H22.4V28ZM13 26.2V10.8H11V26.2H13ZM14.6 28C14.1272 28 13.8373 27.9991 13.6204 27.98C13.4174 27.9621 13.3714 27.9342 13.3683 27.9326L12.4062 29.686C12.7508 29.875 13.1061 29.9425 13.4451 29.9723C13.77 30.0009 14.1627 30 14.6 30V28ZM11 26.2C11 26.6747 10.9993 27.0866 11.025 27.425C11.0514 27.7732 11.11 28.1273 11.2732 28.4722L13.081 27.6168C13.0671 27.5874 13.0371 27.5093 13.0193 27.2737C13.0007 27.0285 13 26.7054 13 26.2H11ZM13.3683 27.9326C13.2559 27.8709 13.151 27.7646 13.081 27.6168L11.2732 28.4722C11.5148 28.9829 11.9071 29.4121 12.4062 29.686L13.3683 27.9326ZM24 26.2C24 26.7054 23.9993 27.0285 23.9807 27.2737C23.9629 27.5093 23.9329 27.5874 23.919 27.6168L25.7268 28.4722C25.89 28.1273 25.9486 27.7732 25.975 27.425C26.0007 27.0866 26 26.6747 26 26.2H24ZM22.4 30C22.8373 30 23.23 30.0009 23.5549 29.9723C23.8939 29.9425 24.2492 29.875 24.5938 29.686L23.6317 27.9326C23.6286 27.9342 23.5826 27.9621 23.3796 27.98C23.1627 27.9991 22.8728 28 22.4 28V30ZM23.919 27.6168C23.849 27.7646 23.7441 27.8709 23.6317 27.9326L24.5938 29.686C25.0929 29.4121 25.4852 28.9829 25.7268 28.4722L23.919 27.6168ZM22.4 9C22.8728 9 23.1627 9.0009 23.3796 9.01999C23.5826 9.03785 23.6286 9.06576 23.6317 9.06743L24.5938 7.31405C24.2492 7.12498 23.8939 7.05752 23.5549 7.02769C23.23 6.9991 22.8373 7 22.4 7V9ZM26 10.8C26 10.3253 26.0007 9.91339 25.975 9.57495C25.9486 9.22684 25.89 8.87273 25.7268 8.52784L23.919 9.38319C23.9329 9.41264 23.9629 9.49073 23.9807 9.72625C23.9993 9.97145 24 10.2946 24 10.8H26ZM23.6317 9.06743C23.7441 9.12913 23.849 9.23537 23.919 9.38319L25.7268 8.52784C25.4852 8.0171 25.0929 7.58791 24.5938 7.31405L23.6317 9.06743ZM14.6 7C14.1627 7 13.77 6.9991 13.4451 7.02769C13.1061 7.05752 12.7508 7.12498 12.4062 7.31405L13.3683 9.06743C13.3714 9.06576 13.4174 9.03785 13.6204 9.01999C13.8373 9.0009 14.1272 9 14.6 9V7ZM13 10.8C13 10.2946 13.0007 9.97145 13.0193 9.72625C13.0371 9.49073 13.0671 9.41264 13.081 9.38319L11.2732 8.52784C11.11 8.87273 11.0514 9.22684 11.025 9.57495C10.9993 9.91339 11 10.3253 11 10.8H13ZM12.4062 7.31405C11.9071 7.58791 11.5148 8.0171 11.2732 8.52784L13.081 9.38319C13.151 9.23537 13.2559 9.12913 13.3683 9.06743L12.4062 7.31405ZM18.3223 27.019H18.3304V25.019H18.3223V27.019ZM17.7285 26.019C17.7285 25.7794 17.9258 25.4565 18.3223 25.4565V27.4565C19.1674 27.4565 19.7285 26.7418 19.7285 26.019H17.7285ZM18.3223 25.4565C18.7187 25.4565 18.916 25.7794 18.916 26.019H16.916C16.916 26.7418 17.4771 27.4565 18.3223 27.4565V25.4565ZM18.916 26.019C18.916 26.2586 18.7187 26.5815 18.3223 26.5815V24.5815C17.4771 24.5815 16.916 25.2961 16.916 26.019H18.916ZM18.3223 26.5815C17.9258 26.5815 17.7285 26.2586 17.7285 26.019H19.7285C19.7285 25.2961 19.1674 24.5815 18.3223 24.5815V26.5815ZM14.4953 8.70041L14.9016 10.8879L16.868 10.5227L16.4617 8.33523L14.4953 8.70041ZM15.8848 11.7053H21.5723V9.70532H15.8848V11.7053ZM22.5555 10.8879L22.9617 8.70041L20.9953 8.33523L20.5891 10.5227L22.5555 10.8879Z" fill="currentColor"/>
		<path d="M37 18.5C37 28.7173 28.7173 37 18.5 37C8.28273 37 0 28.7173 0 18.5C0 8.28273 8.28273 0 18.5 0C28.7173 0 37 8.28273 37 18.5ZM1.84748 18.5C1.84748 27.6969 9.30307 35.1525 18.5 35.1525C27.6969 35.1525 35.1525 27.6969 35.1525 18.5C35.1525 9.30307 27.6969 1.84748 18.5 1.84748C9.30307 1.84748 1.84748 9.30307 1.84748 18.5Z" fill="currentColor"/>
	</symbol>
	<symbol viewBox="0 0 37 37" fill="none" id="icon-telegram">
		<path d="M37 18.5C37 28.7173 28.7173 37 18.5 37C8.28273 37 0 28.7173 0 18.5C0 8.28273 8.28273 0 18.5 0C28.7173 0 37 8.28273 37 18.5ZM1.84748 18.5C1.84748 27.6969 9.30307 35.1525 18.5 35.1525C27.6969 35.1525 35.1525 27.6969 35.1525 18.5C35.1525 9.30307 27.6969 1.84748 18.5 1.84748C9.30307 1.84748 1.84748 9.30307 1.84748 18.5Z" fill="currentColor"/>
		<path d="M25.47 11.6682C26.3535 11.6682 26.5861 12.3777 26.3247 14.0437C26.0257 15.9488 25.1641 22.2562 24.477 26.1826C24.214 27.6851 23.7401 28.3329 23.0503 28.3329C22.6711 28.3329 22.227 28.1372 21.7168 27.7796C21.0255 27.2947 17.5353 24.8442 16.7774 24.2686C16.0861 23.7443 15.1323 23.1131 16.3286 21.8709C16.7544 21.4283 19.5443 18.5995 21.7179 16.3981C21.9499 16.1629 21.7556 15.8042 21.4979 15.8042C21.4392 15.8042 21.3769 15.8231 21.3162 15.8659C18.3863 17.9289 14.3237 20.7921 13.8067 21.1652C13.2898 21.5378 12.7859 21.7769 12.1145 21.7769C11.7715 21.7769 11.3844 21.7146 10.9293 21.5756C9.91164 21.2653 8.91809 20.8955 8.53105 20.7543C7.041 20.2116 7.39452 19.5082 8.84163 18.832C14.6437 16.1223 22.1515 12.8181 23.188 12.3611C24.1978 11.9156 24.9478 11.6682 25.47 11.6682ZM25.47 10C24.7535 10 23.8909 10.2452 22.5862 10.8196L22.4296 10.8886C16.8596 13.3442 11.8092 15.6229 8.20894 17.3045C7.64644 17.5675 5.93537 18.3666 6.00189 20.0381C6.03017 20.7593 6.40412 21.7424 8.02144 22.3313L8.14086 22.3747C8.59233 22.5398 9.53245 22.884 10.4961 23.1782C11.0827 23.3572 11.6128 23.444 12.115 23.444C12.9865 23.444 13.6616 23.1799 14.1896 22.8724C14.187 22.9658 14.1891 23.0597 14.1959 23.1543C14.2912 24.4399 15.2276 25.145 15.787 25.5665L15.865 25.6254C16.691 26.2527 20.4289 28.8745 20.8521 29.1709C21.6487 29.7292 22.3678 30 23.0513 30C24.1261 30 25.5145 29.3906 26.0225 26.4868C26.5049 23.7326 27.0622 19.8852 27.4691 17.0759C27.6425 15.8771 27.7849 14.8939 27.8755 14.3173C28.0583 13.1529 28.1421 11.8339 27.379 10.878C27.0585 10.4777 26.4677 10 25.47 10Z" fill="currentColor"/>
	</symbol>
	<symbol viewBox="0 0 50 50" id="icon-whatsapp">
		<path d="M 25 2 C 12.309534 2 2 12.309534 2 25 C 2 29.079097 3.1186875 32.88588 4.984375 36.208984 L 2.0371094 46.730469 A 1.0001 1.0001 0 0 0 3.2402344 47.970703 L 14.210938 45.251953 C 17.434629 46.972929 21.092591 48 25 48 C 37.690466 48 48 37.690466 48 25 C 48 12.309534 37.690466 2 25 2 z M 25 4 C 36.609534 4 46 13.390466 46 25 C 46 36.609534 36.609534 46 25 46 C 21.278025 46 17.792121 45.029635 14.761719 43.333984 A 1.0001 1.0001 0 0 0 14.033203 43.236328 L 4.4257812 45.617188 L 7.0019531 36.425781 A 1.0001 1.0001 0 0 0 6.9023438 35.646484 C 5.0606869 32.523592 4 28.890107 4 25 C 4 13.390466 13.390466 4 25 4 z M 16.642578 13 C 16.001539 13 15.086045 13.23849 14.333984 14.048828 C 13.882268 14.535548 12 16.369511 12 19.59375 C 12 22.955271 14.331391 25.855848 14.613281 26.228516 L 14.615234 26.228516 L 14.615234 26.230469 C 14.588494 26.195329 14.973031 26.752191 15.486328 27.419922 C 15.999626 28.087653 16.717405 28.96464 17.619141 29.914062 C 19.422612 31.812909 21.958282 34.007419 25.105469 35.349609 C 26.554789 35.966779 27.698179 36.339417 28.564453 36.611328 C 30.169845 37.115426 31.632073 37.038799 32.730469 36.876953 C 33.55263 36.755876 34.456878 36.361114 35.351562 35.794922 C 36.246248 35.22873 37.12309 34.524722 37.509766 33.455078 C 37.786772 32.688244 37.927591 31.979598 37.978516 31.396484 C 38.003976 31.104927 38.007211 30.847602 37.988281 30.609375 C 37.969311 30.371148 37.989581 30.188664 37.767578 29.824219 C 37.302009 29.059804 36.774753 29.039853 36.224609 28.767578 C 35.918939 28.616297 35.048661 28.191329 34.175781 27.775391 C 33.303883 27.35992 32.54892 26.991953 32.083984 26.826172 C 31.790239 26.720488 31.431556 26.568352 30.914062 26.626953 C 30.396569 26.685553 29.88546 27.058933 29.587891 27.5 C 29.305837 27.918069 28.170387 29.258349 27.824219 29.652344 C 27.819619 29.649544 27.849659 29.663383 27.712891 29.595703 C 27.284761 29.383815 26.761157 29.203652 25.986328 28.794922 C 25.2115 28.386192 24.242255 27.782635 23.181641 26.847656 L 23.181641 26.845703 C 21.603029 25.455949 20.497272 23.711106 20.148438 23.125 C 20.171937 23.09704 20.145643 23.130901 20.195312 23.082031 L 20.197266 23.080078 C 20.553781 22.728924 20.869739 22.309521 21.136719 22.001953 C 21.515257 21.565866 21.68231 21.181437 21.863281 20.822266 C 22.223954 20.10644 22.02313 19.318742 21.814453 18.904297 L 21.814453 18.902344 C 21.828863 18.931014 21.701572 18.650157 21.564453 18.326172 C 21.426943 18.001263 21.251663 17.580039 21.064453 17.130859 C 20.690033 16.232501 20.272027 15.224912 20.023438 14.634766 L 20.023438 14.632812 C 19.730591 13.937684 19.334395 13.436908 18.816406 13.195312 C 18.298417 12.953717 17.840778 13.022402 17.822266 13.021484 L 17.820312 13.021484 C 17.450668 13.004432 17.045038 13 16.642578 13 z M 16.642578 15 C 17.028118 15 17.408214 15.004701 17.726562 15.019531 C 18.054056 15.035851 18.033687 15.037192 17.970703 15.007812 C 17.906713 14.977972 17.993533 14.968282 18.179688 15.410156 C 18.423098 15.98801 18.84317 16.999249 19.21875 17.900391 C 19.40654 18.350961 19.582292 18.773816 19.722656 19.105469 C 19.863021 19.437122 19.939077 19.622295 20.027344 19.798828 L 20.027344 19.800781 L 20.029297 19.802734 C 20.115837 19.973483 20.108185 19.864164 20.078125 19.923828 C 19.867096 20.342656 19.838461 20.445493 19.625 20.691406 C 19.29998 21.065838 18.968453 21.483404 18.792969 21.65625 C 18.639439 21.80707 18.36242 22.042032 18.189453 22.501953 C 18.016221 22.962578 18.097073 23.59457 18.375 24.066406 C 18.745032 24.6946 19.964406 26.679307 21.859375 28.347656 C 23.05276 29.399678 24.164563 30.095933 25.052734 30.564453 C 25.940906 31.032973 26.664301 31.306607 26.826172 31.386719 C 27.210549 31.576953 27.630655 31.72467 28.119141 31.666016 C 28.607627 31.607366 29.02878 31.310979 29.296875 31.007812 L 29.298828 31.005859 C 29.655629 30.601347 30.715848 29.390728 31.224609 28.644531 C 31.246169 28.652131 31.239109 28.646231 31.408203 28.707031 L 31.408203 28.708984 L 31.410156 28.708984 C 31.487356 28.736474 32.454286 29.169267 33.316406 29.580078 C 34.178526 29.990889 35.053561 30.417875 35.337891 30.558594 C 35.748225 30.761674 35.942113 30.893881 35.992188 30.894531 C 35.995572 30.982516 35.998992 31.07786 35.986328 31.222656 C 35.951258 31.624292 35.8439 32.180225 35.628906 32.775391 C 35.523582 33.066746 34.975018 33.667661 34.283203 34.105469 C 33.591388 34.543277 32.749338 34.852514 32.4375 34.898438 C 31.499896 35.036591 30.386672 35.087027 29.164062 34.703125 C 28.316336 34.437036 27.259305 34.092596 25.890625 33.509766 C 23.114812 32.325956 20.755591 30.311513 19.070312 28.537109 C 18.227674 27.649908 17.552562 26.824019 17.072266 26.199219 C 16.592866 25.575584 16.383528 25.251054 16.208984 25.021484 L 16.207031 25.019531 C 15.897202 24.609805 14 21.970851 14 19.59375 C 14 17.077989 15.168497 16.091436 15.800781 15.410156 C 16.132721 15.052495 16.495617 15 16.642578 15 z" fill="currentColor"/>
	</symbol>
	<symbol viewBox="0 0 8 5" fill="none" id="icon-arrow">
		<path d="M0.689453 0.896484L3.9998 4.20683L7.31014 0.896484" stroke="#C9E1F5" stroke-width="1.10345" stroke-linecap="round"/>
	</symbol>
</svg>
