<svg version="1.1" xmlns="http://www.w3.org/2000/svg">
	<symbol fill="none" viewBox="0 0 37 37" id="icon-phone">
		<path fill="#fff" d="m12.887 28.81.481-.877-.48.876Zm-.71-.765.904-.428-.904.427Zm12.646 0-.904-.428.904.427Zm-.71.764-.481-.876.48.876Zm0-20.618-.481.876.48-.876Zm.71.765-.904.427.904-.427ZM12.887 8.19l.481.876-.48-.876Zm-.71.765.904.427-.904-.427Zm6.145 16.063a1 1 0 1 0 0 2v-2Zm.008 2a1 1 0 1 0 0-2v2Zm-2.445-16.314-.983.183.151.817h.832v-1Zm5.687 0v1h.832l.151-.817-.983-.183ZM14.6 9h7.8V7h-7.8v2Zm9.4 1.8v15.4h2V10.8h-2ZM22.4 28h-7.8v2h7.8v-2ZM13 26.2V10.8h-2v15.4h2Zm1.6 1.8c-.473 0-.763 0-.98-.02-.203-.018-.249-.046-.252-.047l-.962 1.753c.345.189.7.256 1.04.286.324.029.717.028 1.154.028v-2ZM11 26.2c0 .475 0 .887.025 1.225.026.348.085.702.248 1.047l1.808-.855c-.014-.03-.044-.108-.062-.343-.018-.245-.019-.569-.019-1.074h-2Zm2.368 1.733a.695.695 0 0 1-.287-.316l-1.808.855c.242.51.634.94 1.133 1.214l.962-1.753ZM24 26.2c0 .505 0 .829-.02 1.074-.017.235-.047.313-.061.343l1.808.855c.163-.345.222-.699.248-1.047.026-.338.025-.75.025-1.225h-2ZM22.4 30c.437 0 .83 0 1.155-.028.339-.03.694-.097 1.039-.286l-.962-1.753c-.003.001-.05.03-.252.047-.217.02-.507.02-.98.02v2Zm1.519-2.383a.695.695 0 0 1-.287.316l.962 1.753c.499-.274.891-.703 1.133-1.214l-1.808-.855ZM22.4 9c.473 0 .763 0 .98.02.203.018.249.046.252.047l.962-1.753c-.345-.189-.7-.256-1.04-.286C23.23 6.999 22.838 7 22.4 7v2Zm3.6 1.8c0-.475 0-.887-.025-1.225-.026-.348-.085-.702-.248-1.047l-1.808.855c.014.03.044.108.062.343.018.245.019.569.019 1.074h2Zm-2.368-1.733a.694.694 0 0 1 .287.316l1.808-.855a2.692 2.692 0 0 0-1.133-1.214l-.962 1.753ZM14.6 7c-.437 0-.83 0-1.155.028-.339.03-.694.097-1.039.286l.962 1.753c.003-.001.05-.03.252-.047.217-.02.507-.02.98-.02V7ZM13 10.8c0-.505 0-.829.02-1.074.017-.235.047-.313.061-.343l-1.808-.855c-.163.345-.222.699-.248 1.047-.026.338-.025.75-.025 1.225h2Zm-.594-3.486c-.499.274-.891.703-1.133 1.214l1.808.855a.694.694 0 0 1 .287-.316l-.962-1.753Zm5.916 19.705h.008v-2h-.008v2Zm-.593-1c0-.24.197-.563.593-.563v2c.845 0 1.407-.714 1.407-1.437h-2Zm.593-.563c.397 0 .594.323.594.563h-2c0 .723.561 1.438 1.406 1.438v-2Zm.594.563c0 .24-.197.563-.594.563v-2c-.845 0-1.406.714-1.406 1.437h2Zm-.594.563a.579.579 0 0 1-.593-.563h2c0-.723-.562-1.438-1.407-1.438v2ZM14.495 8.7l.407 2.188 1.966-.365-.406-2.188-1.967.365Zm1.39 3.005h5.687v-2h-5.687v2Zm6.67-.817.407-2.188-1.967-.365-.406 2.188 1.966.365Z"/>
		<circle cx="18.5" cy="18.5" r="17.5" stroke="#fff" stroke-width="2"/>
	</symbol>
	<symbol fill="none" viewBox="0 0 37 37" id="icon-telegram">
		<path stroke="#fff" stroke-linecap="round" stroke-linejoin="round" stroke-width="2" d="M9.053 18.341c-.609-.236-.914-.355-.999-.522a.494.494 0 0 1 .006-.46c.09-.166.397-.276 1.012-.497l15.687-5.631c.503-.18.755-.271.92-.214.142.05.255.162.304.305.057.164-.033.416-.214.92l-5.631 15.686c-.22.615-.331.922-.496 1.012a.493.493 0 0 1-.46.006c-.168-.086-.287-.39-.523-.999l-2.564-6.592a1.065 1.065 0 0 0-.105-.23.496.496 0 0 0-.116-.115c-.05-.035-.11-.059-.229-.105l-6.592-2.564Z"/>
		<circle cx="18.5" cy="18.5" r="17.5" stroke="#fff" stroke-width="2"/>
	</symbol>
	<symbol fill="none" viewBox="0 0 39 39" id="icon-whatsapp">
		<path stroke="#fff" stroke-linejoin="round" stroke-width="2" d="M32.585 6.396C29.105 2.927 24.463 1 19.565 1 9.38 1 1.128 9.222 1.128 19.372c0 3.211.902 6.423 2.45 9.121L1 38l9.798-2.57c2.707 1.414 5.672 2.185 8.766 2.185C29.75 37.615 38 29.392 38 19.243c-.129-4.753-1.934-9.378-5.415-12.847ZM28.46 25.924c-.387 1.027-2.192 2.055-3.094 2.184a7.23 7.23 0 0 1-2.836-.129c-.645-.257-1.547-.514-2.579-1.028-4.64-1.927-7.606-6.552-7.864-6.937-.258-.257-1.934-2.441-1.934-4.754 0-2.312 1.16-3.34 1.547-3.854.387-.514.903-.514 1.29-.514h.902c.258 0 .645-.128 1.031.771.387.9 1.29 3.212 1.418 3.34a.817.817 0 0 1 0 .771c-.129.257-.257.514-.515.771s-.516.642-.645.771c-.258.257-.515.514-.258.9.258.513 1.16 1.926 2.579 3.211 1.805 1.542 3.223 2.056 3.738 2.313.516.257.774.128 1.032-.129s1.16-1.285 1.418-1.799c.258-.513.644-.385 1.031-.256.387.128 2.708 1.284 3.094 1.541.516.257.774.386.903.514.129.386.129 1.285-.258 2.313Z"/>
	</symbol>
</svg>
